<?xml version="1.0" encoding="UTF-8"?>
<!DOCTYPE svg PUBLIC "-//W3C//DTD SVG 1.1//EN" "http://www.w3.org/Graphics/SVG/1.1/DTD/svg11.dtd">
<!-- Creator: CorelDRAW -->
<svg xmlns="http://www.w3.org/2000/svg" xml:space="preserve" width="2083px" height="2083px" style="shape-rendering:geometricPrecision; text-rendering:geometricPrecision; image-rendering:optimizeQuality; fill-rule:evenodd; clip-rule:evenodd"
viewBox="0 0 7339.53 7339.54"
 xmlns:xlink="http://www.w3.org/1999/xlink">
 <defs>
  <style type="text/css">
   <![CDATA[
    .str3 {stroke:#00897B;stroke-width:14.68}
    .str0 {stroke:#80CBC4;stroke-width:14.68}
    .str1 {stroke:#81D4FA;stroke-width:14.68}
    .str2 {stroke:#26A69A;stroke-width:14.68;stroke-dasharray:73.399925 44.039955}
    .fil3 {fill:none}
    .fil5 {fill:#009688}
    .fil0 {fill:#80CBC4}
    .fil1 {fill:#E0F2F1}
    .fil2 {fill:#FECE46}
    .fil4 {fill:white}
    .fil6 {fill:#26A69A;fill-rule:nonzero}
   ]]>
  </style>
     <clipPath id="id0">
      <path d="M1014.77 796.364l5309.99 0 0 5746.81 -5309.99 0 0 -5746.81z"/>
     </clipPath>
    <clipPath id="id1">
     <path d="M1599.2 1793.66l4141.13 0c130.98,0 238.134,107.154 238.134,238.125l0 3553.49c0,130.971 -107.154,238.125 -238.134,238.125l-4141.13 0c-130.98,0 -238.125,-107.154 -238.125,-238.125l0 -3553.49c0,-130.971 107.146,-238.125 238.125,-238.125z"/>
    </clipPath>
    <clipPath id="id2">
     <path d="M1599.2 1579.48l4141.13 0c130.98,0 238.134,107.162 238.134,238.125l0 3553.5c0,130.963 -107.154,238.125 -238.134,238.125l-4141.13 0c-130.98,0 -238.125,-107.162 -238.125,-238.125l0 -3553.5c0,-130.963 107.146,-238.125 238.125,-238.125z"/>
    </clipPath>
 </defs>
 <g id="Layer_x0020_1">
  <metadata id="CorelCorpID_0Corel-Layer"/>
  <g id="_258714632">
   <g>
    <g style="clip-path:url(#id0)">
     <image id="_255544480" transform="matrix(1 0 0 1 -9400.23 -1019.28)" x="10415" y="1815.64" width="5309.99" height="5746.81" xlink:href="todo notes icon_Images\todo notes icon_ImgID1.png"/>
    </g>
   </g>
   <path id="_255541192" class="fil0" d="M1633.93 1579.48l267.585 0 0 -211.204c0,-124.089 101.52,-225.609 225.617,-225.609l0.00832199 0c124.097,0 225.617,101.52 225.617,225.609l0 211.204 1091.39 0 0 -211.204c0,-124.089 101.52,-225.609 225.609,-225.609l0.016644 0c124.089,0 225.609,101.52 225.609,225.609l0 211.204 1091.4 0 0 -211.204c0,-124.089 101.52,-225.609 225.609,-225.609l0.00832199 0c124.097,0 225.617,101.52 225.617,225.609l0 211.204 267.602 0c150.079,0 272.853,122.774 272.853,272.853l0 4071.68c0,150.079 -122.774,272.853 -272.853,272.853l-4071.68 0c-150.079,0 -272.853,-122.774 -272.853,-272.853l0 -4071.68c0,-150.079 122.774,-272.853 272.853,-272.853z"/>
   <path id="_255543688" class="fil1" d="M1599.2 1793.66l4141.13 0c130.98,0 238.134,107.154 238.134,238.125l0 3553.49c0,130.971 -107.154,238.125 -238.134,238.125l-4141.13 0c-130.98,0 -238.125,-107.154 -238.125,-238.125l0 -3553.49c0,-130.971 107.146,-238.125 238.125,-238.125z"/>
   <g style="clip-path:url(#id1)">
    <g>
     <rect id="_255545056" class="fil2 str0" x="1361.08" y="1793.66" width="4617.39" height="797.586"/>
    </g>
   </g>
   <path class="fil3" d="M1599.2 1793.66l4141.13 0c130.98,0 238.134,107.154 238.134,238.125l0 3553.49c0,130.971 -107.154,238.125 -238.134,238.125l-4141.13 0c-130.98,0 -238.125,-107.154 -238.125,-238.125l0 -3553.49c0,-130.971 107.146,-238.125 238.125,-238.125z"/>
   <path id="_255541624" class="fil4" d="M1599.2 1579.48l4141.13 0c130.98,0 238.134,107.162 238.134,238.125l0 3553.5c0,130.963 -107.154,238.125 -238.134,238.125l-4141.13 0c-130.98,0 -238.125,-107.162 -238.125,-238.125l0 -3553.5c0,-130.963 107.146,-238.125 238.125,-238.125z"/>
   <g style="clip-path:url(#id2)">
    <g>
     <rect id="_255541504" class="fil2 str0" x="1361.08" y="1579.48" width="4617.39" height="797.586"/>
     <rect id="_255539248" class="fil3 str1" x="1361.08" y="3066.89" width="4617.39" height="797.491"/>
     <rect id="_255544864" class="fil3 str1" x="1361.08" y="3864.44" width="4617.39" height="797.491"/>
    </g>
   </g>
   <path class="fil3" d="M1599.2 1579.48l4141.13 0c130.98,0 238.134,107.162 238.134,238.125l0 3553.5c0,130.963 -107.154,238.125 -238.134,238.125l-4141.13 0c-130.98,0 -238.125,-107.162 -238.125,-238.125l0 -3553.5c0,-130.963 107.146,-238.125 238.125,-238.125z"/>
   <line id="_255541744" class="fil3 str2" x1="1361.08" y1="2448.49" x2="5978.47" y2= "2448.49" />
   <g>
    <rect id="_255538528" class="fil5 str3" x="1901.52" y="1142.67" width="451.237" height="873.619" rx="225.617" ry="225.617"/>
    <rect id="_255543544" class="fil5 str3" x="3444.15" y="1142.67" width="451.237" height="873.619" rx="225.617" ry="225.617"/>
    <rect id="_255542992" class="fil5 str3" x="4986.77" y="1142.67" width="451.237" height="873.619" rx="225.617" ry="225.617"/>
   </g>
   <path id="_255541408" class="fil6" d="M2102.53 4369.03l0 962.28 -181.419 0 0 -962.28 -296.729 0 0 -154.09 773.312 0 0 154.09 -295.164 0zm831.1 603.086c0,-67.1584 -21.6039,-123.898 -64.8116,-170.493 -43.2078,-46.5865 -96.0441,-69.7549 -158.509,-69.7549 -62.2152,0 -114.793,23.1684 -158.259,69.7549 -43.4657,46.5948 -65.3276,103.334 -65.3276,170.493 0,67.1501 21.8619,123.898 65.3276,170.484 43.4657,46.5948 96.0441,69.7549 158.259,69.7549 61.9489,0 114.527,-23.1601 157.993,-69.7549 43.4657,-46.5865 65.3276,-103.334 65.3276,-170.484zm-621.561 -1.56453c0,-52.8363 10.1528,-102.81 30.1922,-149.663 20.0393,-47.1108 48.9333,-89.0203 86.4155,-125.462 37.2242,-36.1757 79.9077,-63.7714 128.317,-83.2864 48.1593,-19.2654 98.6488,-28.8939 151.751,-28.8939 54.4008,0 105.415,9.62854 153.566,28.8939 48.1593,19.5151 91.1008,47.893 129.365,85.3753 38.0065,37.2159 67.1584,79.1255 86.9398,125.978 19.7814,46.5865 29.6679,95.7861 29.6679,147.058 0,53.3606 -9.88652,103.592 -29.4099,150.187 -19.5234,46.8528 -48.151,88.238 -85.6332,124.414 -39.829,38.0065 -83.8107,66.9005 -131.97,86.4155 -48.409,19.5234 -99.1648,29.4182 -152.525,29.4182 -52.5783,0 -102.81,-9.89484 -151.227,-29.4182 -48.151,-19.5151 -91.1008,-47.893 -128.841,-84.851 -38.0065,-37.7402 -67.1584,-79.9077 -86.9398,-126.761 -19.7814,-46.5948 -29.6679,-96.5683 -29.6679,-149.405zm1490.66 -3.12075c0,-74.7065 -17.4346,-132.752 -52.312,-174.654 -34.8858,-41.6432 -83.5527,-62.4732 -146.026,-62.4732 -62.4648,0 -111.664,21.6039 -147.582,64.5537 -35.6597,42.9498 -53.6186,102.552 -53.6186,178.815 0,76.787 17.1766,135.873 51.796,177.783 34.6195,41.6432 83.2948,62.4648 146.284,62.4648 60.1264,0 108.535,-22.3861 145.76,-67.4164 36.9579,-45.0303 55.6991,-104.632 55.6991,-179.073zm-4.68528 -818.085l165.541 0 0 1181.96 -165.541 0 0 -93.7056c-29.4099,41.6515 -64.0294,72.626 -103.334,92.9233 -39.3047,20.3056 -84.3267,30.4585 -135.349,30.4585 -102.028,0 -182.46,-34.8858 -241.288,-104.899 -58.5618,-69.7549 -87.9717,-165.541 -87.9717,-287.1 0,-115.301 29.9342,-208.482 90.0605,-279.286 59.8601,-71.0531 138.212,-106.455 234.78,-106.455 58.8198,0 109.318,12.2333 151.219,36.9579 41.9095,24.7329 72.626,60.1264 91.8831,106.197l0 -577.055zm962.538 822.77c0,-67.1584 -21.6039,-123.898 -64.8116,-170.493 -43.2078,-46.5865 -96.0441,-69.7549 -158.509,-69.7549 -62.2152,0 -114.793,23.1684 -158.259,69.7549 -43.4657,46.5948 -65.3276,103.334 -65.3276,170.493 0,67.1501 21.8619,123.898 65.3276,170.484 43.4657,46.5948 96.0441,69.7549 158.259,69.7549 61.9489,0 114.527,-23.1601 157.993,-69.7549 43.4657,-46.5865 65.3276,-103.334 65.3276,-170.484zm-621.561 -1.56453c0,-52.8363 10.1528,-102.81 30.1922,-149.663 20.0393,-47.1108 48.9333,-89.0203 86.4155,-125.462 37.2242,-36.1757 79.9077,-63.7714 128.317,-83.2864 48.1593,-19.2654 98.6488,-28.8939 151.751,-28.8939 54.4008,0 105.415,9.62854 153.566,28.8939 48.1593,19.5151 91.1008,47.893 129.365,85.3753 38.0065,37.2159 67.1584,79.1255 86.9398,125.978 19.7814,46.5865 29.6679,95.7861 29.6679,147.058 0,53.3606 -9.88652,103.592 -29.4099,150.187 -19.5234,46.8528 -48.151,88.238 -85.6332,124.414 -39.829,38.0065 -83.8107,66.9005 -131.97,86.4155 -48.409,19.5234 -99.1648,29.4182 -152.525,29.4182 -52.5783,0 -102.81,-9.89484 -151.227,-29.4182 -48.151,-19.5151 -91.1008,-47.893 -128.841,-84.851 -38.0065,-37.7402 -67.1584,-79.9077 -86.9398,-126.761 -19.7814,-46.5948 -29.6679,-96.5683 -29.6679,-149.405z"/>
   <rect id="_255545248" class="fil2" transform="matrix(0.589866 -0.589866 0.50551 0.50551 4453.7 5001.42)" width="1100.93" height="198.163"/>
   <rect id="_258714560" class="fil2" transform="matrix(-0.328437 -0.328437 0.50551 -0.50551 4553.87 5101.6)" width="1100.93" height="198.163"/>
  </g>
  <rect class="fil3" width="7339.53" height="7339.54"/>
 </g>
</svg>
